<?xml version="1.0" encoding="UTF-8"?>
<svg xmlns="http://www.w3.org/2000/svg" viewBox="-2 139.06 964 681.89">
  <!-- Generated from amCharts geodata | Mercator projection -->
    <path d="M527.53,557.08L527.71,554.35L530.6,551.3L530.45,544.57L528.83,542.39L522.75,538L521.16,535.14L524.53,533.29L524.53,530.24L525.96,526.88L528.05,525.37L530.92,526.55L532.35,528.73L533.16,532.28L535.87,533.62L538.74,537.5L542.73,535.82L552.01,533.95L555.85,536.48L555.85,538.68L553.6,542.89L553.97,545.78L551.81,545.47L549.12,547.45L543.98,549.35L541.3,553.03L538.32,554.55L530.13,557.08Z" fill="#dadada" stroke="#fff" stroke-width="0.5" id="DO-01" data-name="Distrito Nacional"/>
    <path d="M290.17,402.12L293.9,400.74L295.3,398.9L297.63,397.96L299.5,398.92L303.7,404.08L301.82,407.83L302.29,412.02L304.14,412.99L306.96,416.74L306.94,419.08L303.68,420.46L304.14,432.17L308.34,437.33L307.87,441.16L309.41,443.72L314.32,446.06L317.16,449.06L324.17,459.4L329.31,458.95L331.11,460.3L336.32,460.94L342.17,465.95L343.76,470.8L343.76,478.81L342.79,484.84L340.03,488L342.82,489.41L346.55,492.71L349.34,497.39L349.81,505.34L346.55,510.46L349.81,514.67L358.2,519.84L359.12,521.27L359.12,524.05L363.78,529.69L366.57,528.32L368.45,528.32L369.86,531.59L378.7,533.98L382.43,539.12L388.95,540.11L390.36,541.51L388.95,543.36L388.95,546.16L391.3,547.59L391.3,550.37L393.62,554.13L393.15,557.38L397.63,560.51L399.67,563.95L399.67,567.68L394.56,574.66L394.09,581.64L395.47,585.85L395.47,588.18L392.68,594.69L389.86,596.06L385.22,596.06L381.93,597.9L371.69,598.31L370.36,599.58L368.09,597.82L368.09,595.71L371.14,588.98L373.3,588.45L373.67,585.24L372.44,580.21L372.73,577.91L374.11,575.54L373.82,572.11L372,569.83L370.93,562.27L369.1,560.37L365.71,558.75L359.69,558.06L355.13,556.47L351.58,556.69L347.59,555.32L343.03,556L341.36,559.74L337.32,561.5L337.81,565.32L339.27,568.76L337.11,572.58L333.9,574.77L333.12,576.53L328.55,578.92L324.2,578.15L315.44,579.22L315.23,577.16L312.83,576.61L310.66,577.91L311.08,580.21L308.92,580.9L306.31,583.4L304.8,581.89L306.52,579.75L302.89,578.37L298.69,581.59L296.53,584.86L296.32,588.67L294,590.82L292.91,593.26L283.99,601.8L281.9,602.1L279.66,604.16L276.11,604.25L272.98,606L270.95,605.32L270.01,603.29L271.44,603.34L272.85,601.01L272.85,598.21L274.23,596.83L275.17,592.63L274.23,588.43L271.44,585.63L269.12,580.96L272.38,578.15L272.38,575.82L270.97,573.95L268.65,573.48L265.86,574.86L263.52,577.66L257.93,575.74L257.47,573.43L255.61,571.06L252.8,570.6L251.42,571.5L250.48,567.77L248.16,563.09L254.68,561.75L256.08,560.81L257.47,555.23L258.4,554.3L258.4,550.09L260.28,549.19L263.07,549.19L264.92,546.88L263.54,542.2L256.55,537.97L254.21,534.2L252.82,529.53L255.61,530.49L257.49,533.29L257.93,536.1L260.28,534.23L264.95,533.32L266.33,531.95L261.22,526.77L251.88,523.45L247.69,522.98L244.43,520.61L239.29,519.65L236.03,517.28L229.04,515.39L227.19,513.98L225.31,510.71L221.11,507.88L219.73,504.77L226.38,504.55L232.69,497.94L235.43,497.94L238.53,490.23L243.2,490.1L245.83,487.45L248.18,487.01L247.71,483.74L244.92,480.9L244.92,478.59L246.3,477.19L249.12,476.28L248.65,473.94L247.24,473.44L246.3,470.63L245.86,463.17L247.24,460.83L250.06,458.98L253.32,458.98L255.17,460.41L256.11,464.16L258.43,468.84L260.31,468.84L261.25,466.06L264.04,463.25L264.98,460L268.24,454.41L268.24,451.13L264.98,444.57L263.1,437.55L265.91,435.67L268.71,430.08L269.17,427.3L268.24,424.95L271.96,423.08L273.37,423.11L275.25,419.82L281.77,418.47L283.65,415.66L281.3,410.04L289.23,408.69L290.64,406.81L289.7,404Z" fill="#dadada" stroke="#fff" stroke-width="0.5" id="DO-02" data-name="Azua"/>
    <path d="M122.28,495.16L125.54,498L129.27,499.9L134.4,501.33L137.66,501.33L140.45,499.95L143.71,500.42L150.73,504.22L152.11,507.02L153.99,507.02L155.84,505.18L159.1,506.11L159.57,508.92L168.91,510.85L174.04,507.13L176.36,507.16L179.62,503.45L182.88,503.45L186.61,504.88L195.48,504.93L206.2,500.31L212.27,498.96L218.32,500.86L219.73,504.77L221.11,507.88L225.31,510.71L227.19,513.98L229.04,515.39L236.03,517.28L239.29,519.65L244.43,520.61L247.69,522.98L251.88,523.45L261.22,526.77L266.33,531.95L264.95,533.32L260.28,534.23L257.93,536.1L257.49,533.29L255.61,530.49L252.82,529.53L250.95,532.33L253.29,534.67L253.29,536.54L246.75,536.04L248.63,538.38L248.63,541.65L247.69,543.49L242.55,543.93L240.23,546.27L240.23,549.52L236.97,550.45L234.62,548.55L233.24,549.49L231.36,552.73L228.57,554.13L223.43,553.64L222.96,555.51L226.69,556.44L227.16,559.25L225.29,560.65L222.5,560.15L221.56,562.02L217.38,562.93L212.25,565.24L211.31,567.55L208.52,569.88L208.05,577.33L210.37,578.76L209.43,581.07L204.76,581.04L200.56,582.41L198.24,581.94L194.51,577.71L194.04,573.51L191.72,571.17L192.19,568.84L191.25,566.5L187.06,563.7L184.27,559L178.22,558.5L176.81,560.37L166.56,565.43L162.83,568.67L160.48,568.67L151.64,561.14L148.83,560.21L147.89,558.34L140.43,554.57L134.85,554.05L129.71,552.62L100.35,538L98.03,534.26L97.09,524.44L98.03,520.72L104.1,508.15L104.1,500.2L105.95,499.29L114.35,498.41L120.43,496.57Z" fill="#dadada" stroke="#fff" stroke-width="0.5" id="DO-03" data-name="Bahoruco"/>
    <path d="M252.82,529.53L254.21,534.2L256.55,537.97L263.54,542.2L264.92,546.88L263.07,549.19L260.28,549.19L258.4,550.09L258.4,554.3L257.47,555.23L256.08,560.81L254.68,561.75L248.16,563.09L250.48,567.77L251.42,571.5L252.8,570.6L255.61,571.06L257.47,573.43L257.93,575.74L263.52,577.66L265.86,574.86L268.65,573.48L270.97,573.95L272.38,575.82L272.38,578.15L269.12,580.96L271.44,585.63L274.23,588.43L275.17,592.63L274.23,596.83L272.85,598.21L272.85,601.01L271.44,603.34L270.01,603.29L267.84,601.5L267.92,599.66L266.38,595.54L263.65,594.25L262.26,591.72L255.74,588.67L252.85,589.53L252.48,588.07L249.67,586.78L245.83,587.38L239.89,591.64L235.17,596.91L233.37,601.5L233.37,604.16L234.39,607.13L236.11,608.06L236.47,610.04L238.72,611.63L240.1,614.16L237.78,616.68L241.11,621.24L242.78,622.01L244.37,627.8L247.43,631.15L245.16,634.36L244.87,639.08L243.51,641.22L242.99,644.05L236.99,655.16L234.23,656.23L231.26,660.04L231.41,662.4L225.83,666.29L225.91,671.61L224.09,671.86L222.21,674.96L218.95,677.26L215.48,684.11L208.15,695.16L206.35,696.07L203.51,700.78L199.89,702.75L199.31,704.07L193.97,708.18L191.57,711.36L189.82,715.71L188.33,713.49L187.94,710.4L189.35,708.53L188.41,702.51L186.66,701.19L186.35,697.24L180.17,689.46L176.78,689.46L175.24,694.64L170.94,695.96L166.04,689.82L161.08,686.55L159.83,684.28L156.75,682L151.2,682L148.75,677.81L149.66,674.88L149.66,669.03L150.29,667.75L153.36,669.36L156.75,668.4L161.68,661.9L162.31,656.72L161.68,653.48L157.38,646.35L162.93,646.02L164.76,643.77L162.31,640.51L157.38,637.27L151.77,636.64L152.53,634.33L152.53,628.3L154.88,625.03L158.6,624.12L162.33,626.02L166.53,625.58L169.32,626.51L170.26,625.58L166.53,612.98L159.54,599.44L159.54,597.57L166.53,588.29L173.99,593.92L184.71,596.31L190.78,596.34L201.97,593.15L204.29,590.84L206.17,586.64L208.49,584.8L209.43,581.07L210.37,578.76L208.05,577.33L208.52,569.88L211.31,567.55L212.25,565.24L217.38,562.93L221.56,562.02L222.5,560.15L225.29,560.65L227.16,559.25L226.69,556.44L222.96,555.51L223.43,553.64L228.57,554.13L231.36,552.73L233.24,549.49L234.62,548.55L236.97,550.45L240.23,549.52L240.23,546.27L242.55,543.93L247.69,543.49L248.63,541.65L248.63,538.38L246.75,536.04L253.29,536.54L253.29,534.67L250.95,532.33Z" fill="#dadada" stroke="#fff" stroke-width="0.5" id="DO-04" data-name="Barahona"/>
    <path d="M70.18,220.35L72.5,223.14L75.29,223.64L76.23,225.06L80.89,224.61L95.81,230.81L105.12,230.87L111.66,229.49L118.18,229.98L120.06,228.13L122.85,227.19L129.37,227.71L130.78,231.48L130.31,233.36L131.69,235.24L134.98,236.18L138.71,239.51L142.88,240.94L146.14,245.18L149.89,246.15L154.07,248.53L154.07,250.38L147.08,257.88L144.29,263.5L144.29,271.93L145.67,276.63L145.67,280.86L144.26,283.19L140.53,285.54L141.47,292.09L140.53,298.2L141,305.72L134.01,307.07L127.47,305.63L128.41,310.33L133.54,314.09L134.46,316.44L134.01,317.85L130.73,319.73L127.47,324.87L124.21,324.37L122.8,322.49L119.54,321.52L115.81,322.43L110.7,319.59L108.35,321.94L107.41,328.95L106.5,329.89L103.22,328.93L99.96,331.27L97.17,335L93.44,334.12L89.34,334.45L88.82,333.15L84.62,331.88L82.69,331.88L77.97,328.01L77.97,325.86L73.77,323.84L71.82,325.45L70.07,323.62L69.68,321.27L67.41,322.02L65.69,320.53L66.19,317.96L64.23,317.41L64.75,314.09L61.99,309.14L60.76,309.48L59.33,306.91L61.26,304.31L66.37,303.98L67.59,299.89L70.85,298.61L73.51,296.57L75.26,297.51L76.17,294.94L79.15,297.09L82.12,297.51L80.35,288.27L82.61,285.15L82.8,281.06L85.25,277.93L85.25,272.98L83.5,271.49L82.77,267.09L81.36,265.82L83.06,258.79L81.83,256.77L79.8,256.03L78.86,253.23L79.07,250.33L76.41,250.33L76.41,245.48L74.66,242.58L68.3,236.46L67.78,222.67Z" fill="#dadada" stroke="#fff" stroke-width="0.5" id="DO-05" data-name="Dajabón"/>
    <path d="M466.48,261.56L468.8,264.38L473,265.35L474.38,266.76L477.67,267.73L478.58,270.08L481.84,269.64L484.19,271.05L487.91,283.27L486.51,292.64L488.36,294.08L489.77,299.25L494.9,309.59L496.75,310.53L505.15,310.11L512.14,311.58L514.02,312.99L513.08,318.12L513.55,321.41L516.34,324.26L528.47,326.66L538.24,330.94L554.1,335.25L555.95,336.19L557.83,338.54L563.88,342.32L571.34,344.25L578.33,344.28L581.14,339.15L582.99,338.23L587.66,338.26L590.92,340.14L596.06,340.64L600.26,339.73L602.58,342.54L608.19,341.66L610.51,342.6L605.84,347.26L604.46,352.87L602.58,352.87L600.26,354.72L596.06,356.1L596.97,357.98L591.86,361.7L589.04,361.67L589.04,364.49L591.86,367.8L593.71,373.43L587.66,373.38L586.25,374.78L582.99,373.38L576.92,372.85L572.72,375.17L564.82,374.2L559.68,376.52L554.07,374.59L554.07,387.26L552.22,388.63L543.36,388.11L544.29,380.63L547.08,374.09L543.36,371.72L538.69,371.25L535.43,368.41L529.85,365.57L527.5,365.57L524.24,368.82L522.83,368.8L519.57,366.45L508.86,363.58L504.19,359.33L500.93,359.3L499.55,356.49L498.14,357.89L494.88,358.8L493.47,356.93L490.21,356.43L487.42,359.72L486.01,359.22L486.48,356.43L483.22,356.4L480.87,360.6L479.02,357.31L475.76,358.22L476.7,354.97L472.97,355.41L469.69,359.14L467.37,358.2L466.9,360.52L462.23,359.11L460.85,356.73L458.03,357.67L457.12,355.33L453.39,356.24L449.66,355.74L449.19,358.56L447.31,358.53L445.46,354.77L441.73,351.96L438.47,350.99L433.8,345.33L431.46,343.92L428.67,340.17L427.75,336.88L426.81,333.12L425.41,331.25L425.41,327.49L426.81,324.2L429.6,322.35L431.48,319.56L431.48,314.86L433.8,309.72L433.36,306.44L436.15,298.48L437.56,290.02L445.02,284.43L449.22,283.52L452.01,280.73L457.61,278.87L457.61,277.46L453.88,276.05L452.94,273.7L454.35,270.88L462.72,267.17L463.19,263.41L460.87,261.06Z" fill="#dadada" stroke="#fff" stroke-width="0.5" id="DO-06" data-name="Duarte"/>
    <path d="M134.46,316.44L136.8,317.41L139.12,316.94L145.2,319.78L148.46,324.51L148.93,330.14L158.71,337.68L161.5,337.71L167.11,341.96L173.16,343.87L176.42,346.21L174.56,348.09L173.16,360.74L174.1,364.02L172.69,365.87L169.43,367.75L163.82,367.72L160.09,370.98L157.77,369.07L154.51,369.07L149.84,364.35L140.98,362.89L138.19,363.8L133.52,370.81L133.99,376.44L130.73,381.57L126.97,390.92L126.5,396.99L122.77,398.37L113.93,396L111.59,396.44L108.8,398.76L98.99,410.89L99.93,413.24L101.81,413.7L101.34,418.39L97.14,425.37L96.67,430.99L100.4,428.2L101.31,428.67L100.84,438.48L102.25,443.64L100.37,445.98L99.46,449.23L98.05,450.17L101.78,452.54L101.78,454.41L103.63,456.75L112.97,461.93L113.44,464.27L110.18,469.86L112.5,472.7L114.35,476.91L117.17,478.31L121.81,477.87L124.16,479.31L126.01,483.99L126.01,485.86L124.16,492.85L122.28,495.16L120.43,494.23L107.36,492.27L102.22,489.93L87.31,490.29L64.46,485.5L53.9,485.44L55.21,482.86L58.39,482.86L58.88,479L70.85,474.38L74.79,451.76L75.21,443.86L73.75,441.49L73.96,432.28L70.77,431.43L70.25,427.9L64.62,423.74L62.69,423.52L58.78,412.16L59.17,410.45L56.72,409.38L55.81,410.89L51.09,409.18L50.59,407.58L44.75,406.09L42.82,408.13L40.06,409.62L38.31,408.13L38.31,412.52L34.63,411.99L32.7,413.81L31.97,409.21L34.63,409.65L34.42,405.79L38.1,404.27L42.48,400.41L43.5,397.82L45.24,397.82L46.89,399.64L52.62,398.34L56.51,399.83L56.69,395.78L61.91,388.99L63.66,388.25L67.33,384.69L69.78,385.99L70.49,383.83L73.15,383.39L76.12,377.93L77.84,379.2L80.01,377.16L77.14,376.11L77.32,374.37L81.02,373.52L80.5,371.28L78.55,370.2L81,367.61L84.49,369.43L85.72,367.61L84.88,365.35L87.86,365.35L89.79,366.31L92.24,364.79L94.48,360.18L92.24,358.58L95.91,357.07L95,355.05L93.96,348.81L98.86,347.51L99.38,346.21L96.2,344.42L96.41,341.82L99.17,340.53L96.7,335.72L97.17,335L99.96,331.27L103.22,328.93L106.5,329.89L107.41,328.95L108.35,321.94L110.7,319.59L115.81,322.43L119.54,321.52L122.8,322.49L124.21,324.37L127.47,324.87L130.73,319.73L134.01,317.85Z" fill="#dadada" stroke="#fff" stroke-width="0.5" id="DO-07" data-name="Elías Piña"/>
    <path d="M837.56,404.74L837.56,409.46L835.22,408.49L835.69,411.77L832.43,411.77L831.02,414.56L827.29,415L826.35,416.87L826.82,422.5L824.97,422.94L821.68,425.75L821.68,427.13L824.03,430.91L830.55,445.9L831.02,454.8L830.08,458.05L826.82,459.92L823.07,465.01L818.42,467.8L814.23,475.73L811.88,476.19L807.68,474.76L801.16,475.18L799.28,479.39L799.75,483.6L797.9,485.44L798.37,487.78L800.22,491.06L795.55,491.03L792.29,489.16L791.36,489.6L788.1,496.59L786.22,498.93L782.96,507.33L778.76,512.91L770.83,518.94L769.89,522.18L764.78,527.3L759.18,529.14L760.58,517.92L762.9,517.01L761.99,515.14L754.51,515.08L751.72,516.95L748.93,517.39L741.94,513.63L739.59,508.01L732.13,502.81L727.96,501.41L725.14,502.78L722.35,502.78L720.95,499.48L717.22,498.08L717.69,493.4L719.09,493.4L722.35,490.62L723.29,486.9L723.29,481.29L726.08,472.89L725.64,468.21L727.02,464.96L727.02,462.15L724.7,457L716.77,447.14L714.45,445.24L707.93,443.33L706.52,438.65L702.33,436.75L699.07,428.78L696.28,425.97L696.28,423.16L697.66,420.82L698.6,411.47L700.94,411.03L705.61,413.37L713.54,419.05L715.86,419.52L719.59,421.89L732.63,424.29L734.51,423.85L735.91,421.51L735.44,418.23L730.78,413.07L725.64,409.76L721.94,403.17L721.47,398.04L725.2,397.1L727.99,394.23L731.45,396.08L735.44,395.86L739.77,396.3L743.11,395.39L744.49,396.99L743.84,398.98L746.01,399.75L747.96,396.77L747.68,390.1L748.41,387.59L753.26,395.78L757.45,396L758.39,399.23L761.57,399.97L764.05,402.67L766.87,403.28L772.29,402.37L776.73,403.06L780.35,402.21L782.23,400.69L782.67,398.92L779.62,395.86L782.44,393.63L784.26,395.09L788.59,394.32L788.75,392.08L791.36,390.35L795.35,391.78L796.86,390.26L801.86,391.48L805.25,391.7L818.89,401.3L822.44,399.92L826.27,400.3L832.06,404.27L834.1,403.75Z" fill="#dadada" stroke="#fff" stroke-width="0.5" id="DO-08" data-name="El Seibo"/>
    <path d="M498.22,224.67L498.66,226.52L497.72,229.32L497.72,234.03L496.78,237.79L495.37,239.17L488.85,241.97L484.65,245.7L481.4,246.15L478.14,248L476.73,247.06L471.15,247.5L469.27,246.56L467.86,247.48L468.8,254.53L466.48,261.56L460.87,261.06L457.61,258.24L454.35,253.51L453.41,250.22L454.82,248.36L452.94,245.51L449.68,244.57L446.89,244.54L444.55,245.95L441.29,246.4L438.97,249.66L435.24,251.52L431.98,261.37L429.63,262.31L426.84,261.34L425.43,259.46L424.96,253.81L424.05,252.87L418.91,251.9L416.59,250.46L414.24,247.17L413.33,247.17L407.26,261.23L407.73,267.81L405.38,271.54L405.38,275.31L406.32,277.66L409.11,280.95L409.11,284.24L405.85,291.26L402.56,304.83L400.71,308.59L400.71,310.94L399.3,311.38L397.92,315.14L391.84,315.11L390.91,313.7L390.91,305.25L386.73,297.26L383.92,299.11L382.07,302.37L377.87,302.82L365.27,301.35L362.48,297.12L363.42,294.77L365.27,292.89L369,291.51L367.62,287.28L367.15,280.73L370.41,275.11L369.94,268.06L371.35,266.18L375.08,265.27L379.74,261.53L379.74,255.92L382.53,253.56L383.47,242.77L387.67,237.62L387.67,235.27L386.29,231.51L388.14,228.24L387.23,224L390.02,223.09L389.55,220.74L391.87,218.38L394.22,218.88L400.27,218.91L401.68,217.03L405.87,217.52L408.66,216.14L410.54,219.91L412.39,219.91L413.8,217.58L415.65,219.46L419.85,219.02L418,216.19L424.05,215.28L424.52,211.99L422.67,207.75L425.46,201.29L425.54,202.37L429.45,207.19L441.18,216.83L445.46,219.3L452.34,221.68L463.14,221.98L465.96,223.5L473.28,225.53L474.95,225.36L477.85,227.35L479.8,226.91L484.37,227.52Z" fill="#dadada" stroke="#fff" stroke-width="0.5" id="DO-09" data-name="Espaillat"/>
    <path d="M53.9,485.44L64.46,485.5L87.31,490.29L102.22,489.93L107.36,492.27L120.43,494.23L122.28,495.16L120.43,496.57L114.35,498.41L105.95,499.29L104.1,500.2L104.1,508.15L98.03,520.72L97.09,524.44L98.03,534.26L100.35,538L129.71,552.62L134.85,554.05L140.43,554.57L147.89,558.34L148.83,560.21L151.64,561.14L160.48,568.67L162.83,568.67L166.56,565.43L176.81,560.37L178.22,558.5L184.27,559L187.06,563.7L191.25,566.5L192.19,568.84L191.72,571.17L194.04,573.51L194.51,577.71L198.24,581.94L200.56,582.41L204.76,581.04L209.43,581.07L208.49,584.8L206.17,586.64L204.29,590.84L201.97,593.15L190.78,596.34L184.71,596.31L173.99,593.92L166.53,588.29L159.54,597.57L159.54,599.44L166.53,612.98L170.26,625.58L169.32,626.51L166.53,625.58L162.33,626.02L158.6,624.12L154.88,625.03L152.53,628.3L152.53,634.33L151.77,636.64L147.52,633.7L142.57,628.19L132.71,619.43L122.54,618.47L116.96,616.85L111.04,613.14L104.68,611.33L100.03,611.33L96.64,609.38L93.88,606.11L87.26,601.36L84,597.13L81.39,597.13L79.69,595.73L74.17,593.78L82.38,579.88L56.07,569.36L53.82,565.51L46.97,564.03L43.26,555.59L34.66,550.92L27.3,547.92L24.83,540.25L33.61,538.63L33.41,535.11L13.95,514.29L10.74,507.13L8.61,507.13L5.84,503.28L2.16,503.83L0,501.79L2.87,499.98L6.86,498.68L11.03,493.01L16.66,495.35L21.07,498.88L22.82,498.33L24.96,495L27.2,495L32.62,498.3L33.56,500.89L35.28,500.67L36.51,498.08L40.92,498.6L42.98,500.42L47.36,499.12L50.54,499.87L52.78,498.6L51.95,491.42L53.69,489.08Z" fill="#dadada" stroke="#fff" stroke-width="0.5" id="DO-10" data-name="Independencia"/>
    <path d="M808.75,564.03L809.53,561.61L811.38,559.27L811.85,549.49L814.64,548.11L814.2,546.24L816.05,543.91L816.52,541.6L818.4,539.73L822.6,531.34L821.66,530.41L821.66,520.61L814.67,515.91L809.53,507.46L807.21,506.53L806.74,499.98L805.8,498.57L803.48,498.11L803.48,495.3L800.69,493.4L800.22,491.06L798.37,487.78L797.9,485.44L799.75,483.6L799.28,479.39L801.16,475.18L807.68,474.76L811.88,476.19L814.23,475.73L818.42,467.8L823.07,465.01L826.82,459.92L830.08,458.05L831.02,454.8L830.55,445.9L824.03,430.91L821.68,427.13L821.68,425.75L824.97,422.94L826.82,422.5L826.35,416.87L827.29,415L831.02,414.56L832.43,411.77L835.69,411.77L835.22,408.49L837.56,409.46L837.56,404.74L840.46,406.2L842,406.04L845.75,409.27L849.46,409.95L857.93,415.85L858.87,417.21L861.77,418.45L865.23,423.05L874.44,431.02L875.17,432.92L881.61,439.97L882.05,441.57L885.52,443.47L886.75,446.09L890.89,448.54L901.01,459.23L904.43,461.63L906.54,459.7L908.34,460.77L908.99,462.92L917.47,470.49L920.07,471.87L922.76,472.17L925.45,475.7L928.71,478.45L930.01,481.51L934.99,484.18L936.95,487.92L943.05,492.6L945.21,491.23L950.06,495.35L954.5,497.47L959.35,504.13L960,506.72L959.35,512.31L957.39,517.42L955.44,519.73L953.19,524.3L949.57,528.59L945.06,537.14L941.88,538L941.95,540.8L939.48,545.31L939.48,546.68L935.43,550.07L933.92,550.37L932.1,553.42L928.34,556.94L927.04,561.5L926.67,574.72L922.89,579.36L916.45,581.42L898.64,575.71L896.47,573.78L894.44,573.43L889.07,569.36L884.66,571.5L883.57,575.71L886.9,579.91L887.27,582.71L883.57,590.95L880.52,594.09L879.08,597.22L877.91,603.01L876.76,603.78L877.2,614.76L876.55,616.44L871.83,614.3L867.11,614.84L864.29,616.44L860.02,616.52L856.55,615.37L854.07,616.44L853.73,614.46L851.41,612.79L848.88,614.24L847.27,610.12L844.24,606.22L839.96,595.76L835.11,589.14L831.85,581.72L825.99,577.38L824.11,573.87L824.11,571.28ZM843.88,619.4L845.31,620.86L854.31,623.38L859.65,626.81L864.74,626.98L868.36,626.21L869.74,628.65L872.69,629.09L874.44,630.38L879.37,629.72L881.32,630.55L885.24,629.17L887.56,629.72L891.6,632.77L894.15,636.03L895.51,639.16L895.38,642.43L893.21,643.8L890.45,641.44L888.21,641.44L882.84,639.46L875.95,638.26L873.29,639.85L871.54,639.55L868.13,640.53L866.33,642.51L864.37,642.67L846.77,636.5L846.93,634.06L842.65,628.79L839.44,626.43L839.89,622.01Z" fill="#dadada" stroke="#fff" stroke-width="0.5" id="DO-11" data-name="La Altagracia"/>
    <path d="M759.18,529.14L764.78,527.3L769.89,522.18L770.83,518.94L778.76,512.91L782.96,507.33L786.22,498.93L788.1,496.59L791.36,489.6L792.29,489.16L795.55,491.03L800.22,491.06L800.69,493.4L803.48,495.3L803.48,498.11L805.8,498.57L806.74,499.98L807.21,506.53L809.53,507.46L814.67,515.91L821.66,520.61L821.66,530.41L822.6,531.34L818.4,539.73L816.52,541.6L816.05,543.91L814.2,546.24L814.64,548.11L811.85,549.49L811.38,559.27L809.53,561.61L808.75,564.03L801.06,562.87L798.6,561.5L794.12,560.13L790.34,561.72L788.83,564.03L783.61,563.64L779.12,565.4L767.31,566.47L761.5,566.17L759.62,561.34L760.56,558.06L759.18,554.33L754.98,548.25L753.57,547.29L751.72,543.55L751.72,541.21L753.57,537.5L757.77,533.32ZM780.35,570.21L784.18,574.72L785.57,579.28L784.99,580.82L779.18,578.92L777.87,576.17L778.76,570.43Z" fill="#dadada" stroke="#fff" stroke-width="0.5" id="DO-12" data-name="La Romana"/>
    <path d="M362.48,297.12L365.27,301.35L377.87,302.82L382.07,302.37L383.92,299.11L386.73,297.26L390.91,305.25L390.91,313.7L391.84,315.11L397.92,315.14L399.3,311.38L400.71,310.94L401.65,316.58L403.03,319.86L406.76,323.15L409.55,328.32L410.96,333.48L414.22,337.74L422.15,336.38L427.75,336.88L428.67,340.17L431.46,343.92L433.8,345.33L438.47,350.99L441.73,351.96L445.46,354.77L447.31,358.53L449.19,358.56L446.84,359.47L445.46,363.69L442.64,365.07L437.06,365.51L433.8,364.55L429.6,370.15L427.73,370.15L424,372L422.12,374.32L420.27,379.01L420.27,372.91L417.01,370.56L409.55,368.16L405.82,370.48L405.35,374.7L400.68,378.43L396.96,376.52L389.97,377.43L386.68,379.28L384.36,382.54L384.36,385.82L385.77,387.7L386.21,391.92L388.56,399.42L388.56,406.45L381.54,409.68L380.63,412.93L375.96,417.12L374.09,419.94L366.63,424.1L363.37,431.1L363.84,433.91L366.63,435.32L369.42,439.09L373.15,441.9L375.94,448.93L382.01,454.57L383.39,457.38L381.99,460.66L383.39,467.22L379.67,468.59L376.41,473.25L377.32,476.06L376.88,477.46L371.74,477.43L368.95,478.81L366.6,481.15L366.6,486.74L364.28,487.67L359.61,487.65L357.73,486.22L353.54,485.75L346.08,487.56L340.03,488L342.79,484.84L343.76,478.81L343.76,470.8L342.17,465.95L336.32,460.94L331.11,460.3L329.31,458.95L324.17,459.4L317.16,449.06L314.32,446.06L309.41,443.72L307.87,441.16L308.34,437.33L304.14,432.17L303.68,420.46L306.94,419.08L306.96,416.74L304.14,412.99L302.29,412.02L301.82,407.83L303.7,404.08L299.5,398.92L297.63,397.96L295.3,398.9L293.9,400.74L290.17,402.12L289.23,398.4L286.44,393.68L283.65,391.81L285.5,389.46L284.59,383.37L283.18,381.02L283.65,378.23L290.17,378.73L292.51,376.85L293.9,373.6L295.3,372.66L299.5,373.16L303.23,370.37L307.43,369.46L308.84,368.05L310.69,362.45L314.89,362.48L320.03,361.1L323.76,357.84L326.55,357.4L327.48,355.99L330.27,355.08L331.21,348.98L333.09,344.78L334.94,342.9L336.35,343.4L337.76,347.15L341.02,347.62L342.87,349.03L345.22,348.12L347.07,345.8L345.22,344.36L345.69,341.11L343.81,339.67L345.69,336.41L344.75,333.59L344.75,328.9L346.16,326.58L344.28,325.14L338.23,323.24L327.98,318.48L330.77,317.1L330.77,315.69L327.98,314.26L327.04,310.5L330.77,310.53L331.71,308.67L333.56,308.67L335.91,306.82L342.43,307.32L344.3,302.65L352.68,300.33L357.81,297.09Z" fill="#dadada" stroke="#fff" stroke-width="0.5" id="DO-13" data-name="La Vega"/>
    <path d="M581.59,316.63L582.08,320.39L581.14,322.27L582.55,325.56L581.14,326.96L578.35,324.59L576.47,325.06L576.94,327.88L578.35,330.22L578.8,335.86L574.62,335.83L574.15,339.59L577.88,341.93L578.33,344.28L571.34,344.25L563.88,342.32L557.83,338.54L555.95,336.19L554.1,335.25L538.24,330.94L528.47,326.66L516.34,324.26L513.55,321.41L513.08,318.12L514.02,312.99L512.14,311.58L505.15,310.11L496.75,310.53L494.9,309.59L489.77,299.25L488.36,294.08L486.51,292.64L487.91,283.27L484.19,271.05L481.84,269.64L478.58,270.08L477.67,267.73L474.38,266.76L473,265.35L468.8,264.38L466.48,261.56L468.8,254.53L467.86,247.48L469.27,246.56L471.15,247.5L476.73,247.06L478.14,248L481.4,246.15L484.65,245.7L488.85,241.97L495.37,239.17L496.78,237.79L497.72,234.03L497.72,229.32L498.66,226.52L498.22,224.67L500.88,222.67L502.67,217.66L507.6,212.9L509.72,212.82L516.89,210.66L518.76,211.68L523.77,211.43L525.44,209.96L529.35,210.91L532.53,210.66L534.93,212.43L536.52,212.29L537.67,214.45L539.21,214.59L539.34,217.05L541.74,218.83L543.17,217.75L544.92,219.82L548.68,220.6L552.38,228.29L552.95,231.67L552.22,234.58L550.06,237.98L549.98,243.13L547.45,247.89L549.48,252.65L551.57,255.2L554.7,256.19L556.86,258.35L555.72,260.26L555.72,271.49L554.83,273.26L555.79,277.16L558.74,284.16L562.6,290.15L562.6,294.05L564.97,297.59L570.71,302.21L571,304.67L573.11,306.1L573.24,307.73L575.35,310.64Z" fill="#dadada" stroke="#fff" stroke-width="0.5" id="DO-14" data-name="María Trinidad Sánchez"/>
    <path d="M203.85,167.65L205.86,169.81L204.92,174.05L206.33,176.85L206.8,182.54L214.25,186.36L223.12,188.74L226.85,191.13L224.03,202.85L221.71,205.17L221.71,209.44L220.77,212.71L223.1,218.35L223.1,225.89L221.22,224.47L219.84,225.89L215.64,224.92L214.7,227.71L217.96,235.24L218.43,241.36L217.49,245.59L215.64,246.98L213.76,250.74L206.3,247.86L203.98,252.57L201.16,253.01L197.43,249.69L191.85,249.69L186.25,243.99L184.87,244.46L182.99,247.28L180.2,246.78L178.32,249.14L171.8,252.37L169.01,252.35L167.13,250.93L162.93,250.91L156.88,246.18L154.07,248.53L149.89,246.15L146.14,245.18L142.88,240.94L138.71,239.51L134.98,236.18L131.69,235.24L130.31,233.36L130.78,231.48L129.37,227.71L122.85,227.19L120.06,228.13L118.18,229.98L111.66,229.49L105.12,230.87L95.81,230.81L80.89,224.61L76.23,225.06L75.29,223.64L72.5,223.14L70.18,220.35L71.14,219.35L70.36,214.92L67.44,213.65L65.79,211.07L65.48,208.27L64.05,207.72L63.76,204.89L70.38,203.43L72.55,199.52L72.42,197.28L69.5,194.76L65.3,186.5L66.84,185.75L66.19,181.73L64.44,181.65L62.48,185.28L59.72,186.42L59.01,183.2L67.05,176.05L67.62,173.97L74.58,172.64L81.18,169.26L81.52,166.71L85.3,165.79L89.5,162.25L91.38,157.84L89.5,151.15L91.17,150.24L94.79,151.79L95.37,154.48L97.53,155.56L100.63,153.4L101.31,149.85L105.22,149.93L107.54,148.16L110.28,147.21L115.08,148.3L121.6,146.63L122.54,147.38L131.22,148.77L134.35,147.55L144.26,151.85L147.52,154.92L153.08,156.62L158.53,160.08L160.2,159.94L163.09,161.8L172.58,163.8L178.74,164.71L179.41,164.02L183.54,164.19L186.14,166.49L190.63,168.65L196.57,169.73L198.97,168.48Z" fill="#dadada" stroke="#fff" stroke-width="0.5" id="DO-15" data-name="Monte Cristi"/>
    <path d="M126.01,778.36L127.52,780.11L130.65,780.35L132.24,781.47L134.04,786.13L137.82,789.46L137.53,791.35L131.88,796.22L124.05,799.2L119.57,799.58L118.39,798.95L117.4,796.08L119.04,791.3L121,788.56L121.52,784.76L124.13,783.14ZM74.17,593.78L79.69,595.73L81.39,597.13L84,597.13L87.26,601.36L93.88,606.11L96.64,609.38L100.03,611.33L104.68,611.33L111.04,613.14L116.96,616.85L122.54,618.47L132.71,619.43L142.57,628.19L147.52,633.7L151.77,636.64L157.38,637.27L162.31,640.51L164.76,643.77L162.93,646.02L157.38,646.35L161.68,653.48L162.31,656.72L161.68,661.9L156.75,668.4L153.36,669.36L150.29,667.75L149.66,669.03L149.66,674.88L148.75,677.81L151.2,682L156.75,682L159.83,684.28L161.08,686.55L166.04,689.82L170.94,695.96L175.24,694.64L176.78,689.46L180.17,689.46L186.35,697.24L186.66,701.19L188.41,702.51L189.35,708.53L187.94,710.4L188.33,713.49L186.79,715.25L186.85,721.11L184.32,723.16L183.01,721.88L180.69,723L176,729.41L170.86,739.43L167.89,753.67L166.87,756.32L165.33,757.17L165.57,760.51L162.96,765.82L160.56,766.97L160.48,768.94L157.3,773.57L157.8,775.48L155.92,778.68L154.04,778.68L151.59,782.46L149.69,779.42L146.5,777.01L145.77,773.05L138.55,766.29L135.06,755.42L132.03,748.8L129.48,745.37L127.52,743.7L123.92,742.42L122.67,740.36L116.59,737.98L104.57,737.46L94.06,740.5L89,740.66L86.45,740.2L84.49,737.93L89.5,732.89L91.38,725.68L93.98,726.72L96.02,726.2L97.97,722.56L98.05,718.97L96.67,715.25L93.41,711.74L93.49,709.69L91.17,704.81L86.6,701.77L86.76,699.03L89.58,698.51L91.25,693.63L91.09,690.8L88.77,687.24L88.27,684.33L86.68,681.46L79.56,675.04L74.14,672.24L69.65,667.06L65.4,665.69L66.55,662.29L69.42,660.26L69.94,655.68L71.17,654.91L72.18,652.03L71.84,647.45L69.39,646.49L67.96,643.09L68.98,642.13L69.18,635.92L67.23,634.99L63.24,629.34L61.18,628.27L58.31,624.97L58.31,622.94L59.85,620.58L62.3,619.32L61.78,617.29L63,613.23L65.98,611.41L65.95,608.09ZM94.35,816.13L96.02,818.56L93.85,818.94Z" fill="#dadada" stroke="#fff" stroke-width="0.5" id="DO-16" data-name="Pedernales"/>
    <path d="M429.6,535.66L435.55,535.91L439.12,537.78L439.78,539.92L442.59,540.88L443.5,543.69L446.79,544.62L446.76,548.83L447.7,550.23L453.78,549.79L453.78,551.66L455.63,555.4L454.69,557.27L458.42,557.3L461.24,556.39L464.97,558.26L463.56,560.59L461.24,558.23L461.24,563.37L456.1,567.08L450.02,566.58L447.7,568.89L447.7,570.76L450.96,569.85L451.9,571.72L451.43,574.97L453.28,576.86L454.69,574.99L458.42,575.95L458.42,579.22L459.83,584.36L463.09,586.23L463.56,588.1L467.73,591.86L468.2,596.06L469.14,597L472.87,597.93L474.75,599.36L474.28,603.53L473.34,604.47L473.34,608.2L475.66,610.12L473.13,611.33L467.99,609.27L460.66,613.01L458.37,611.11L450.1,608.67L441.91,611.41L435.84,611.93L429.89,610.48L425.77,610.64L422.43,608.97L420.11,608.8L410.46,612.02L400.68,617.59L395.55,618.58L390.41,620.72L384.91,617.04L380.19,617.73L375.21,616.82L377.45,615.06L381.86,616.14L382.95,614.68L385.92,615.67L387.59,614.63L391.06,614.46L391.51,613.31L387.28,610.81L383.53,610.81L379.25,606.36L379.04,605.07L376.43,603.4L372.52,602.71L370.36,599.58L371.69,598.31L381.93,597.9L385.22,596.06L389.86,596.06L392.68,594.69L395.47,588.18L395.47,585.85L394.09,581.64L394.56,574.66L399.67,567.68L399.67,563.95L397.63,560.51L398.31,555.04L401.88,551.28L405.17,551.28L413.8,546.27L417.69,546.27L422.15,544.68L424.52,540.61Z" fill="#dadada" stroke="#fff" stroke-width="0.5" id="DO-17" data-name="Peravia"/>
    <path d="M425.46,201.29L422.67,207.75L424.52,211.99L424.05,215.28L418,216.19L419.85,219.02L415.65,219.46L413.8,217.58L412.39,219.91L410.54,219.91L408.66,216.14L405.87,217.52L401.68,217.03L400.27,218.91L394.22,218.88L391.87,218.38L389.55,220.74L390.02,223.09L387.23,224L388.14,228.24L386.29,231.51L387.67,235.27L387.67,237.62L383.47,242.77L382.53,253.56L379.74,255.92L373.69,252.6L367.15,250.19L356.9,248.25L355.05,245.43L355.05,243.08L357.84,233.22L356.9,229.01L349.91,224.72L347.12,224.72L337.81,219.02L336.87,221.37L339.19,231.26L338.25,234.05L336.4,236.41L329.39,239.17L327.07,238.23L325.19,234L321.02,233.5L316.35,228.29L310.74,224.03L308.89,225.91L305.16,224L302.35,224L297.23,221.62L286.99,221.1L285.11,220.6L282.79,218.24L280.91,219.16L276.71,214.92L276.24,212.57L274.39,212.54L268.78,209.24L263.2,203.57L260.88,203.54L258.53,204.95L253.4,204.92L247.82,202.54L245.97,196.89L243.15,195.45L233.84,194.45L229.64,193.01L226.85,191.13L223.12,188.74L214.25,186.36L206.8,182.54L206.33,176.85L204.92,174.05L205.86,169.81L203.85,167.65L206.2,166.27L205.99,163.49L206.56,158.34L210.97,160.72L212.27,162.55L215.61,163.33L217.8,160.47L221.35,161.72L227.5,162.11L229.59,160.08L235.61,158.86L238.3,157.48L240.96,154.87L240.54,150.15L242.34,148.3L245.03,147.16L245.76,145L250.61,143.69L255.3,141.36L258.43,141.06L264.43,141.53L270.17,145.38L276.16,148.3L277.34,148.16L279.5,145.47L286.67,148.99L291.52,148.63L292.83,150.07L294.5,148.55L297.63,149.54L301.25,147.77L303.78,148.46L303.91,151.85L307.61,154.92L310.95,154.87L319.63,166.1L317.97,168.57L320.13,169.65L321.3,167.71L323.26,168.34L325.06,167.26L327.98,167.26L332.31,170.51L332.39,172.03L337.16,173.64L339.35,175.97L347.82,180.35L350.43,182.04L352.88,185.28L355.86,185.28L356.14,187.05L359.48,187.8L360.92,186.11L364.33,188.66L369.34,190.27L374.55,187.75L377.29,187.58L379.9,190.35L381.41,189.74L386.34,190.35L386.99,187.88L389.31,183.34L396.36,181.9L405.69,182.59L408.14,183.81L410.46,186.75L412.86,188.05L414.98,191.04L418.23,191.13L420.56,193.51Z" fill="#dadada" stroke="#fff" stroke-width="0.5" id="DO-18" data-name="Puerto Plata"/>
    <path d="M400.71,310.94L400.71,308.59L402.56,304.83L405.85,291.26L409.11,284.24L409.11,280.95L406.32,277.66L405.38,275.31L405.38,271.54L407.73,267.81L407.26,261.23L413.33,247.17L414.24,247.17L416.59,250.46L418.91,251.9L424.05,252.87L424.96,253.81L425.43,259.46L426.84,261.34L429.63,262.31L431.98,261.37L435.24,251.52L438.97,249.66L441.29,246.4L444.55,245.95L446.89,244.54L449.68,244.57L452.94,245.51L454.82,248.36L453.41,250.22L454.35,253.51L457.61,258.24L460.87,261.06L463.19,263.41L462.72,267.17L454.35,270.88L452.94,273.7L453.88,276.05L457.61,277.46L457.61,278.87L452.01,280.73L449.22,283.52L445.02,284.43L437.56,290.02L436.15,298.48L433.36,306.44L433.8,309.72L431.48,314.86L431.48,319.56L429.6,322.35L426.81,324.2L425.41,327.49L425.41,331.25L426.81,333.12L427.75,336.88L422.15,336.38L414.22,337.74L410.96,333.48L409.55,328.32L406.76,323.15L403.03,319.86L401.65,316.58Z" fill="#dadada" stroke="#fff" stroke-width="0.5" id="DO-19" data-name="Hermanas Mirabal"/>
    <path d="M623.15,376.47L619.82,389.96L617.03,396.5L614.68,393.68L603.49,389.41L600.7,385.16L595.12,380L591.39,378.56L586.25,374.78L587.66,373.38L593.71,373.43L591.86,367.8L589.04,364.49L589.04,361.67L591.86,361.7L596.97,357.98L596.06,356.1L600.26,354.72L602.58,352.87L604.46,352.87L605.84,347.26L610.51,342.6L608.19,341.66L602.58,342.54L600.26,339.73L596.06,340.64L590.92,340.14L587.66,338.26L582.99,338.23L581.14,339.15L578.33,344.28L577.88,341.93L574.15,339.59L574.62,335.83L578.8,335.86L578.35,330.22L576.94,327.88L576.47,325.06L578.35,324.59L581.14,326.96L582.55,325.56L581.14,322.27L582.08,320.39L581.59,316.63L589.83,321.25L598.17,322.85L608.32,320.47L612.64,317.79L629.59,316.63L633.14,314.64L633.3,311.8L636.27,312.18L640.76,308.56L642.87,310.03L649.08,308.56L652.62,308.73L656.19,309.89L662.71,308.51L664.88,308.73L665.97,310.42L668.79,308.95L669.94,310.88L672.21,312.35L675.88,309.89L681.31,313.79L682.61,312.79L686.55,315.17L688.63,315.78L691.03,315.25L692.55,318.48L695.52,320.56L698.41,320.25L699.56,314.04L702.33,312.49L703.63,310.64L706.16,310.03L708.12,307.65L713.9,306.66L713.49,305.05L715.44,303.37L717.89,304.58L721.02,298.59L724.78,299.53L726.97,299.36L727.54,301.05L725.87,304.97L721.81,308.95L716.88,317.41L718.91,319.48L723.55,320.09L726.66,319.7L729.63,316.72L732.32,318.23L734.43,317.93L739.12,314.78L744.21,316.16L743.97,320.25L741,325.83L733.78,330.91L732.03,333.21L728.98,334.67L728.4,337.82L727.02,340.11L725.8,348.4L722.9,349.47L716.3,348.23L710.8,348.18L706.76,345.17L705.51,346.49L702.85,344.56L701.47,345.63L696.75,343.04L694.42,345.8L687.12,344.72L678.41,345.17L675.02,345.86L672.21,345.55L670.67,346.55L668.06,343.78L665.82,342.96L663.13,343.09L660.31,341.71L653.87,341.96L651.92,340.19L649.67,341.66L646.34,340.03L644.46,340.72L642.35,339.89L638.72,340.58L632.93,339.42L631.71,338.57L629.18,339.12L625.61,336.96L621.69,336.83L619.82,338.12L620.62,339.81L620.02,349.39L618.67,353.09L617.21,361.21L616.43,361.67L618.67,370.4L617.29,371.94L619.37,375.78Z" fill="#dadada" stroke="#fff" stroke-width="0.5" id="DO-20" data-name="Samaná"/>
    <path d="M457.06,453.61L464.05,460.66L464.99,463.47L466.4,464.88L472.45,465.84L477.59,470.55L478.97,472.89L476.65,475.7L476.65,478.48L480.85,484.59L480.85,487.87L482.23,490.21L481.76,493.92L485.02,497.69L486.43,500.97L485.02,502.84L483.64,500.94L481.76,501.41L480.82,508.87L483.17,510.76L483.61,514.51L486.43,519.65L488.28,520.12L488.28,522.46L489.69,523.86L491.07,531.81L493.89,532.3L497.62,531.84L499,529.53L500.41,532.33L503.67,534.7L504.13,537.94L505.99,540.77L505.07,541.68L501.32,541.68L501.79,544.02L505.52,544.02L506.46,546.82L508.33,545.45L510.65,545.45L512.51,548.28L514.85,548.75L518.58,544.57L519.99,552.04L521.84,553.45L520.56,557.6L516.16,561.5L512.4,569.14L510.16,570.35L508.33,572.66L500.15,588.76L497.77,590.82L495.95,590.21L493.91,592.49L493.42,595.46L490.65,599.28L487.39,601.8L483.27,609.96L481.24,611.11L478.5,608.97L475.66,610.12L473.34,608.2L473.34,604.47L474.28,603.53L474.75,599.36L472.87,597.93L469.14,597L468.2,596.06L467.73,591.86L463.56,588.1L463.09,586.23L459.83,584.36L458.42,579.22L458.42,575.95L454.69,574.99L453.28,576.86L451.43,574.97L451.9,571.72L450.96,569.85L447.7,570.76L447.7,568.89L450.02,566.58L456.1,567.08L461.24,563.37L461.24,558.23L463.56,560.59L464.97,558.26L461.24,556.39L458.42,557.3L454.69,557.27L455.63,555.4L453.78,551.66L453.78,549.79L447.7,550.23L446.76,548.83L446.79,544.62L443.5,543.69L442.59,540.88L439.78,539.92L439.12,537.78L435.55,535.91L429.6,535.66L429.6,533.38L428.12,530.87L423.35,525.54L423.35,523.01L426.61,514.84L427.21,510.43L427.21,503.53L423.95,498.19L424.23,494.09L427.21,490.01L427.81,487.81L428.12,481.51L431.3,476.06L435.6,479.2L437.01,479.2L439.8,476.88L440.74,474.54L444.47,471.29L444.47,466.61L443.09,464.74L443.56,462.4L445.88,459.62L449.14,457.3L454.74,455.46Z" fill="#dadada" stroke="#fff" stroke-width="0.5" id="DO-21" data-name="San Cristóbal"/>
    <path d="M176.42,346.21L177.35,346.68L178.76,350.47L180.15,351.41L183.4,350.03L187.6,350.03L194.15,352.43L197.88,351.05L201.61,351.99L206.25,355.77L213.26,356.73L221.19,360.07L223.98,364.3L228.62,366.67L229.56,370.89L229.56,376.99L233.29,380.74L236.55,382.65L239.34,382.65L248.21,386.46L250.09,389.74L250.09,392.08L255.2,393.99L256.14,392.58L260.8,390.73L261.74,388.39L263.59,387.48L267.32,388.91L269.67,387.5L271.52,387.5L276.66,389.41L278.51,390.84L283.65,391.81L286.44,393.68L289.23,398.4L290.17,402.12L289.7,404L290.64,406.81L289.23,408.69L281.3,410.04L283.65,415.66L281.77,418.47L275.25,419.82L273.37,423.11L271.96,423.08L268.24,424.95L269.17,427.3L268.71,430.08L265.91,435.67L263.1,437.55L264.98,444.57L268.24,451.13L268.24,454.41L264.98,460L264.04,463.25L261.25,466.06L260.31,468.84L258.43,468.84L256.11,464.16L255.17,460.41L253.32,458.98L250.06,458.98L247.24,460.83L245.86,463.17L246.3,470.63L247.24,473.44L248.65,473.94L249.12,476.28L246.3,477.19L244.92,478.59L244.92,480.9L247.71,483.74L248.18,487.01L245.83,487.45L243.2,490.1L238.53,490.23L235.43,497.94L232.69,497.94L226.38,504.55L219.73,504.77L218.32,500.86L212.27,498.96L206.2,500.31L195.48,504.93L186.61,504.88L182.88,503.45L179.62,503.45L176.36,507.16L174.04,507.13L168.91,510.85L159.57,508.92L159.1,506.11L155.84,505.18L153.99,507.02L152.11,507.02L150.73,504.22L143.71,500.42L140.45,499.95L137.66,501.33L134.4,501.33L129.27,499.9L125.54,498L122.28,495.16L124.16,492.85L126.01,485.86L126.01,483.99L124.16,479.31L121.81,477.87L117.17,478.31L114.35,476.91L112.5,472.7L110.18,469.86L113.44,464.27L112.97,461.93L103.63,456.75L101.78,454.41L101.78,452.54L98.05,450.17L99.46,449.23L100.37,445.98L102.25,443.64L100.84,438.48L101.31,428.67L100.4,428.2L96.67,430.99L97.14,425.37L101.34,418.39L101.81,413.7L99.93,413.24L98.99,410.89L108.8,398.76L111.59,396.44L113.93,396L122.77,398.37L126.5,396.99L126.97,390.92L130.73,381.57L133.99,376.44L133.52,370.81L138.19,363.8L140.98,362.89L149.84,364.35L154.51,369.07L157.77,369.07L160.09,370.98L163.82,367.72L169.43,367.75L172.69,365.87L174.1,364.02L173.16,360.74L174.56,348.09Z" fill="#dadada" stroke="#fff" stroke-width="0.5" id="DO-22" data-name="San Juan"/>
    <path d="M663.63,453.36L662.69,454.77L661.75,462.23L662.69,464.6L665.48,465.07L666.89,466.47L666.89,469.28L669.68,474.43L669.68,481.92L671.53,484.73L668.27,488.91L668.74,490.79L671.53,492.22L672.94,495.96L675.73,499.23L676.2,502.98L678.05,507.19L682.25,510.02L683.18,515.17L685.51,519.38L685.98,522.18L691.11,530.6L692.96,526.42L696.69,522.7L701.36,519.93L701.83,517.12L703.71,515.74L703.71,510.6L705.09,508.76L705.09,505.01L706.03,503.14L712.1,502.7L714.9,501.33L717.22,498.08L720.95,499.48L722.35,502.78L725.14,502.78L727.96,501.41L732.13,502.81L739.59,508.01L741.94,513.63L748.93,517.39L751.72,516.95L754.51,515.08L761.99,515.14L762.9,517.01L760.58,517.92L759.18,529.14L757.77,533.32L753.57,537.5L751.72,541.21L751.72,543.55L753.57,547.29L754.98,548.25L759.18,554.33L760.56,558.06L759.62,561.34L761.5,566.17L752.32,562.87L747.68,562.79L742.82,561.5L735.44,558.61L731.66,555.7L732.97,555.1L731.87,551.19L729.06,549.68L724.49,550.75L722.17,552.43L713.57,552.57L706.16,554.93L705.3,553.56L699.56,552.26L699.43,556.09L697.03,557.3L690.02,557.76L680.45,556.61L674.01,557.08L664.72,558.67L650.74,563.04L645.42,562.96L645.4,550.89L647.75,549.96L648.19,545.31L636.09,544.29L628.16,539.59L625.81,533.51L622.55,531.62L623.49,529.77L626.28,528.37L628.63,522.32L632.83,515.33L632.83,513.93L630.51,511.12L632.36,506L631.42,503.2L629.1,505.04L628.16,502.23L633.32,495.88L636.56,492.02L639.82,485.94L644.51,470.55L650.56,462.65L653.35,457.05L654.76,456.59L658.49,450.53L660.84,450.08L663.16,451.49Z" fill="#dadada" stroke="#fff" stroke-width="0.5" id="DO-23" data-name="San Pedro de Macorís"/>
    <path d="M449.19,358.56L449.66,355.74L453.39,356.24L457.12,355.33L458.03,357.67L460.85,356.73L462.23,359.11L466.9,360.52L467.37,358.2L469.69,359.14L472.97,355.41L476.7,354.97L475.76,358.22L479.02,357.31L480.87,360.6L483.22,356.4L486.48,356.43L486.01,359.22L487.42,359.72L490.21,356.43L493.47,356.93L494.88,358.8L498.14,357.89L499.55,356.49L500.93,359.3L504.19,359.33L508.86,363.58L519.57,366.45L522.83,368.8L524.24,368.82L527.5,365.57L529.85,365.57L535.43,368.41L538.69,371.25L543.36,371.72L547.08,374.09L544.29,380.63L543.36,388.11L538.69,397.46L539.63,401.68L541.48,403.09L541.01,410.12L536.81,420.38L534.49,422.72L532.61,427.38L529.82,430.16L525.15,429.67L522.36,428.26L518.16,424.48L514.91,423.08L513.5,423.99L512.09,428.2L510.71,429.58L508.36,428.65L505.57,429.09L503.72,426.28L501.84,426.28L496.7,429.5L491.59,429.47L489.71,431.35L488.78,435.07L487.86,436L482.73,435.04L475.74,435.95L470.13,434.98L465.46,437.3L464.18,438.98L463.01,434.05L459.36,428.56L455.37,425.5L451.72,421.15L446.45,418.28L443.56,414.7L436.1,409.04L436.1,404.83L435.19,403.42L431.9,402.01L426.79,401.05L425.85,400.11L425.38,396.36L426.32,388.86L421.18,383.23L420.27,379.01L422.12,374.32L424,372L427.73,370.15L429.6,370.15L433.8,364.55L437.06,365.51L442.64,365.07L445.46,363.69L446.84,359.47Z" fill="#dadada" stroke="#fff" stroke-width="0.5" id="DO-24" data-name="Sánchez Ramírez"/>
    <path d="M297.23,221.62L302.35,224L305.16,224L308.89,225.91L310.74,224.03L316.35,228.29L321.02,233.5L325.19,234L327.07,238.23L329.39,239.17L336.4,236.41L338.25,234.05L339.19,231.26L336.87,221.37L337.81,219.02L347.12,224.72L349.91,224.72L356.9,229.01L357.84,233.22L355.05,243.08L355.05,245.43L356.9,248.25L367.15,250.19L373.69,252.6L379.74,255.92L379.74,261.53L375.08,265.27L371.35,266.18L369.94,268.06L370.41,275.11L367.15,280.73L367.62,287.28L369,291.51L365.27,292.89L363.42,294.77L362.48,297.12L357.81,297.09L352.68,300.33L344.3,302.65L342.43,307.32L335.91,306.82L333.56,308.67L331.71,308.67L330.77,310.53L327.04,310.5L327.98,314.26L330.77,315.69L330.77,317.1L327.98,318.48L338.23,323.24L344.28,325.14L346.16,326.58L344.75,328.9L344.75,333.59L345.69,336.41L343.81,339.67L345.69,341.11L345.22,344.36L347.07,345.8L345.22,348.12L342.87,349.03L341.02,347.62L337.76,347.15L336.35,343.4L334.94,342.9L333.09,344.78L331.21,348.98L330.27,355.08L327.48,355.99L326.55,357.4L323.76,357.84L320.03,361.1L314.89,362.48L310.69,362.45L308.84,368.05L307.43,369.46L303.23,370.37L299.5,373.16L295.3,372.66L293.9,373.6L292.51,376.85L290.17,378.73L283.65,378.23L283.18,381.02L284.59,383.37L285.5,389.46L283.65,391.81L278.51,390.84L276.66,389.41L271.52,387.5L269.67,387.5L267.32,388.91L263.59,387.48L261.74,388.39L260.8,390.73L256.14,392.58L255.2,393.99L250.09,392.08L250.09,389.74L248.21,386.46L239.34,382.65L236.55,382.65L233.29,380.74L229.56,376.99L229.56,370.89L228.62,366.67L223.98,364.3L221.19,360.07L213.26,356.73L206.25,355.77L201.61,351.99L201.14,349.17L202.99,344.03L203.46,337.46L201.14,332.3L197.88,331.36L196.03,327.13L196.94,325.25L199.76,324.78L198.82,318.7L200.22,316.83L200.22,313.07L197.41,309.78L202.08,305.58L204.42,305.61L204.89,303.73L203.95,299.5L206.27,296.68L210.47,294.36L217.93,292.53L219.81,296.29L223.07,296.32L223.54,293.03L227.27,292.59L227.27,291.18L231,291.68L231.94,290.74L232.87,286.53L236.6,284.65L241.25,285.15L243.59,282.36L239.39,280.92L240.33,277.66L238.92,275.28L242.18,269.69L245.91,272.04L247.32,272.04L251.99,275.36L256.66,277.27L265.5,276.85L267.84,275.44L269.7,271.71L272.51,275.47L277.15,275.97L279.03,277.41L282.76,275.53L286.02,275.56L288.81,276.52L292.54,276.05L295.36,272.32L289.28,269.47L286.49,265.24L286.49,261.48L288.84,257.27L290.22,250.69L287.43,249.27L285.11,249.27L279.5,245.01L280.44,241.72L278.12,239.37L278.12,236.07L280.44,236.54L288.37,242.72L289.75,242.72L291.16,239.42L293.04,238.04L293.51,235.22L295.83,231.95L295.83,228.18Z" fill="#dadada" stroke="#fff" stroke-width="0.5" id="DO-25" data-name="Santiago"/>
    <path d="M154.07,248.53L156.88,246.18L162.93,250.91L167.13,250.93L169.01,252.35L171.8,252.37L178.32,249.14L180.2,246.78L182.99,247.28L184.87,244.46L186.25,243.99L191.85,249.69L197.43,249.69L201.16,253.01L203.98,252.57L206.3,247.86L213.76,250.74L213.76,256.36L215.61,258.27L216.08,263.88L222.16,266.29L225.42,266.29L231.47,270.08L235.2,270.11L238.45,269.19L242.18,269.69L238.92,275.28L240.33,277.66L239.39,280.92L243.59,282.36L241.25,285.15L236.6,284.65L232.87,286.53L231.94,290.74L231,291.68L227.27,291.18L227.27,292.59L223.54,293.03L223.07,296.32L219.81,296.29L217.93,292.53L210.47,294.36L206.27,296.68L203.95,299.5L204.89,303.73L204.42,305.61L202.08,305.58L197.41,309.78L200.22,313.07L200.22,316.83L198.82,318.7L199.76,324.78L196.94,325.25L196.03,327.13L197.88,331.36L201.14,332.3L203.46,337.46L202.99,344.03L201.14,349.17L201.61,351.99L197.88,351.05L194.15,352.43L187.6,350.03L183.4,350.03L180.15,351.41L178.76,350.47L177.35,346.68L176.42,346.21L173.16,343.87L167.11,341.96L161.5,337.71L158.71,337.68L148.93,330.14L148.46,324.51L145.2,319.78L139.12,316.94L136.8,317.41L134.46,316.44L133.54,314.09L128.41,310.33L127.47,305.63L134.01,307.07L141,305.72L140.53,298.2L141.47,292.09L140.53,285.54L144.26,283.19L145.67,280.86L145.67,276.63L144.29,271.93L144.29,263.5L147.08,257.88L154.07,250.38Z" fill="#dadada" stroke="#fff" stroke-width="0.5" id="DO-26" data-name="Santiago Rodríguez"/>
    <path d="M226.85,191.13L229.64,193.01L233.84,194.45L243.15,195.45L245.97,196.89L247.82,202.54L253.4,204.92L258.53,204.95L260.88,203.54L263.2,203.57L268.78,209.24L274.39,212.54L276.24,212.57L276.71,214.92L280.91,219.16L282.79,218.24L285.11,220.6L286.99,221.1L297.23,221.62L295.83,228.18L295.83,231.95L293.51,235.22L293.04,238.04L291.16,239.42L289.75,242.72L288.37,242.72L280.44,236.54L278.12,236.07L278.12,239.37L280.44,241.72L279.5,245.01L285.11,249.27L287.43,249.27L290.22,250.69L288.84,257.27L286.49,261.48L286.49,265.24L289.28,269.47L295.36,272.32L292.54,276.05L288.81,276.52L286.02,275.56L282.76,275.53L279.03,277.41L277.15,275.97L272.51,275.47L269.7,271.71L267.84,275.44L265.5,276.85L256.66,277.27L251.99,275.36L247.32,272.04L245.91,272.04L242.18,269.69L238.45,269.19L235.2,270.11L231.47,270.08L225.42,266.29L222.16,266.29L216.08,263.88L215.61,258.27L213.76,256.36L213.76,250.74L215.64,246.98L217.49,245.59L218.43,241.36L217.96,235.24L214.7,227.71L215.64,224.92L219.84,225.89L221.22,224.47L223.1,225.89L223.1,218.35L220.77,212.71L221.71,209.44L221.71,205.17L224.03,202.85Z" fill="#dadada" stroke="#fff" stroke-width="0.5" id="DO-27" data-name="Valverde"/>
    <path d="M383.39,457.38L382.01,454.57L375.94,448.93L373.15,441.9L369.42,439.09L366.63,435.32L363.84,433.91L363.37,431.1L366.63,424.1L374.09,419.94L375.96,417.12L380.63,412.93L381.54,409.68L388.56,406.45L388.56,399.42L386.21,391.92L385.77,387.7L384.36,385.82L384.36,382.54L386.68,379.28L389.97,377.43L396.96,376.52L400.68,378.43L405.35,374.7L405.82,370.48L409.55,368.16L417.01,370.56L420.27,372.91L420.27,379.01L421.18,383.23L426.32,388.86L425.38,396.36L425.85,400.11L426.79,401.05L431.9,402.01L435.19,403.42L436.1,404.83L436.1,409.04L443.56,414.7L446.45,418.28L451.72,421.15L455.37,425.5L459.36,428.56L463.01,434.05L464.18,438.98L461.73,441.02L458.94,441.93L458,443.33L458,451.27L457.06,453.61L454.74,455.46L449.14,457.3L445.88,459.62L443.56,462.4L443.09,464.74L444.47,466.61L444.47,471.29L440.74,474.54L439.8,476.88L437.01,479.2L435.6,479.2L431.3,476.06L427.7,474.96L425.35,473.52L422.56,470.25L418.37,468.35L411.38,470.63L406.24,470.14L403.45,471.54L398.78,466.83L392.73,464.46L389,459.29L386.65,457.88Z" fill="#dadada" stroke="#fff" stroke-width="0.5" id="DO-28" data-name="Monseñor Nouel"/>
    <path d="M586.25,374.78L591.39,378.56L595.12,380L600.7,385.16L603.49,389.41L614.68,393.68L617.03,396.5L619.35,400.25L624.01,401.21L626.8,402.65L631.47,406.89L637.99,409.73L641.25,413.48L643.6,414.89L646.39,415.39L651.06,419.16L655.7,420.6L660.84,424.35L667.82,426.74L672.49,430.05L679.95,428.67L682.74,428.7L684.62,430.11L684.62,432.92L682.74,436.17L679.01,436.64L677.16,441.3L672.02,442.67L667.82,448.27L665.95,448.71L665.48,451.99L663.63,453.36L663.16,451.49L660.84,450.08L658.49,450.53L654.76,456.59L653.35,457.05L650.56,462.65L644.51,470.55L639.82,485.94L636.56,492.02L633.32,495.88L622.35,491.91L617.65,491.91L615.77,495.85L609.54,497.17L607.04,498.82L602,498.41L596.45,500.2L593.66,499.23L588.08,503.42L588.08,505.76L585.73,510.87L582,512.72L581.06,514.59L577.34,516.9L575.95,513.16L576.42,508.95L575.01,507.55L574.08,503.8L569.41,503.78L568.49,502.37L568.03,493.48L566.15,493.48L563.83,494.86L562.89,492.05L559.16,487.37L558.69,484.1L556.84,482.22L550.32,481.23L545.18,484.48L543.3,484.48L540.98,482.58L537.72,482.58L535.85,481.15L532.59,480.21L533.06,485.36L531.2,487.67L527.92,488.12L525.13,491.86L521.4,490.9L516.73,490.87L513.94,493.18L512.06,493.65L506.01,488L502.28,487.98L499.02,488.89L493.89,487.92L492.5,486.99L488.78,479.5L484.58,473.85L484.11,471.98L481.32,471.51L478.97,472.89L477.59,470.55L472.45,465.84L466.4,464.88L464.99,463.47L464.05,460.66L457.06,453.61L458,451.27L458,443.33L458.94,441.93L461.73,441.02L464.18,438.98L465.46,437.3L470.13,434.98L475.74,435.95L482.73,435.04L487.86,436L488.78,435.07L489.71,431.35L491.59,429.47L496.7,429.5L501.84,426.28L503.72,426.28L505.57,429.09L508.36,428.65L510.71,429.58L512.09,428.2L513.5,423.99L514.91,423.08L518.16,424.48L522.36,428.26L525.15,429.67L529.82,430.16L532.61,427.38L534.49,422.72L536.81,420.38L541.01,410.12L541.48,403.09L539.63,401.68L538.69,397.46L543.36,388.11L552.22,388.63L554.07,387.26L554.07,374.59L559.68,376.52L564.82,374.2L572.72,375.17L576.92,372.85L582.99,373.38Z" fill="#dadada" stroke="#fff" stroke-width="0.5" id="DO-29" data-name="Monte Plata"/>
    <path d="M727.99,394.23L725.2,397.1L721.47,398.04L721.94,403.17L725.64,409.76L730.78,413.07L735.44,418.23L735.91,421.51L734.51,423.85L732.63,424.29L719.59,421.89L715.86,419.52L713.54,419.05L705.61,413.37L700.94,411.03L698.6,411.47L697.66,420.82L696.28,423.16L696.28,425.97L699.07,428.78L702.33,436.75L706.52,438.65L707.93,443.33L714.45,445.24L716.77,447.14L724.7,457L727.02,462.15L727.02,464.96L725.64,468.21L726.08,472.89L723.29,481.29L723.29,486.9L722.35,490.62L719.09,493.4L717.69,493.4L717.22,498.08L714.9,501.33L712.1,502.7L706.03,503.14L705.09,505.01L705.09,508.76L703.71,510.6L703.71,515.74L701.83,517.12L701.36,519.93L696.69,522.7L692.96,526.42L691.11,530.6L685.98,522.18L685.51,519.38L683.18,515.17L682.25,510.02L678.05,507.19L676.2,502.98L675.73,499.23L672.94,495.96L671.53,492.22L668.74,490.79L668.27,488.91L671.53,484.73L669.68,481.92L669.68,474.43L666.89,469.28L666.89,466.47L665.48,465.07L662.69,464.6L661.75,462.23L662.69,454.77L663.63,453.36L665.48,451.99L665.95,448.71L667.82,448.27L672.02,442.67L677.16,441.3L679.01,436.64L682.74,436.17L684.62,432.92L684.62,430.11L682.74,428.7L679.95,428.67L672.49,430.05L667.82,426.74L660.84,424.35L655.7,420.6L651.06,419.16L646.39,415.39L643.6,414.89L641.25,413.48L637.99,409.73L631.47,406.89L626.8,402.65L624.01,401.21L619.35,400.25L617.03,396.5L619.82,389.96L623.15,376.47L626.13,377.07L634.81,374.84L636.04,373.54L640.31,376.22L643.57,376.22L648.42,374.7L652.62,374.09L654.89,376.3L654.81,377.54L661.04,377.21L664.96,379.53L667.98,377.99L668.87,372.25L666.18,371.56L665.53,372.85L658.65,373.02L666.03,370.95L669.89,371.47L675.44,370.48L678.41,371.94L682.92,376.99L682.92,380.3L684.51,382.9L691.09,384.5L694.06,386.95L702.4,385.52L706.03,389.32L710.31,390.4L715.08,394.54L723.19,391.34L725.14,391.34Z" fill="#dadada" stroke="#fff" stroke-width="0.5" id="DO-30" data-name="Hato Mayor"/>
    <path d="M383.39,457.38L386.65,457.88L389,459.29L392.73,464.46L398.78,466.83L403.45,471.54L406.24,470.14L411.38,470.63L418.37,468.35L422.56,470.25L425.35,473.52L427.7,474.96L431.3,476.06L428.12,481.51L427.81,487.81L427.21,490.01L424.23,494.09L423.95,498.19L427.21,503.53L427.21,510.43L426.61,514.84L423.35,523.01L423.35,525.54L428.12,530.87L429.6,533.38L429.6,535.66L424.52,540.61L422.15,544.68L417.69,546.27L413.8,546.27L405.17,551.28L401.88,551.28L398.31,555.04L397.63,560.51L393.15,557.38L393.62,554.13L391.3,550.37L391.3,547.59L388.95,546.16L388.95,543.36L390.36,541.51L388.95,540.11L382.43,539.12L378.7,533.98L369.86,531.59L368.45,528.32L366.57,528.32L363.78,529.69L359.12,524.05L359.12,521.27L358.2,519.84L349.81,514.67L346.55,510.46L349.81,505.34L349.34,497.39L346.55,492.71L342.82,489.41L340.03,488L346.08,487.56L353.54,485.75L357.73,486.22L359.61,487.65L364.28,487.67L366.6,486.74L366.6,481.15L368.95,478.81L371.74,477.43L376.88,477.46L377.32,476.06L376.41,473.25L379.67,468.59L383.39,467.22L381.99,460.66Z" fill="#dadada" stroke="#fff" stroke-width="0.5" id="DO-31" data-name="San José de Ocoa"/>
    <path d="M478.97,472.89L481.32,471.51L484.11,471.98L484.58,473.85L488.78,479.5L492.5,486.99L493.89,487.92L499.02,488.89L502.28,487.98L506.01,488L512.06,493.65L513.94,493.18L516.73,490.87L521.4,490.9L525.13,491.86L527.92,488.12L531.2,487.67L533.06,485.36L532.59,480.21L535.85,481.15L537.72,482.58L540.98,482.58L543.3,484.48L545.18,484.48L550.32,481.23L556.84,482.22L558.69,484.1L559.16,487.37L562.89,492.05L563.83,494.86L566.15,493.48L568.03,493.48L568.49,502.37L569.41,503.78L574.08,503.8L575.01,507.55L576.42,508.95L575.95,513.16L577.34,516.9L581.06,514.59L582,512.72L585.73,510.87L588.08,505.76L588.08,503.42L593.66,499.23L596.45,500.2L602,498.41L607.04,498.82L609.54,497.17L615.77,495.85L617.65,491.91L622.35,491.91L633.32,495.88L628.16,502.23L629.1,505.04L631.42,503.2L632.36,506L630.51,511.12L632.83,513.93L632.83,515.33L628.63,522.32L626.28,528.37L623.49,529.77L622.55,531.62L625.81,533.51L628.16,539.59L636.09,544.29L648.19,545.31L647.75,549.96L645.4,550.89L645.42,562.96L640.31,561.5L636.4,558.28L634.73,555.56L628.58,551.28L621.41,550.97L618.3,553.5L619.97,562.35L617.36,564.11L608.81,561.36L605.92,556.61L605.39,551.41L600.99,549.21L596.92,548.99L591.21,547.07L578.67,546.08L570.27,546.55L566.64,545.25L553.97,545.78L553.6,542.89L555.85,538.68L555.85,536.48L552.01,533.95L542.73,535.82L538.74,537.5L535.87,533.62L533.16,532.28L532.35,528.73L530.92,526.55L528.05,525.37L525.96,526.88L524.53,530.24L524.53,533.29L521.16,535.14L522.75,538L528.83,542.39L530.45,544.57L530.6,551.3L527.71,554.35L527.53,557.08L524.19,558.45L520.56,557.6L521.84,553.45L519.99,552.04L518.58,544.57L514.85,548.75L512.51,548.28L510.65,545.45L508.33,545.45L506.46,546.82L505.52,544.02L501.79,544.02L501.32,541.68L505.07,541.68L505.99,540.77L504.13,537.94L503.67,534.7L500.41,532.33L499,529.53L497.62,531.84L493.89,532.3L491.07,531.81L489.69,523.86L488.28,522.46L488.28,520.12L486.43,519.65L483.61,514.51L483.17,510.76L480.82,508.87L481.76,501.41L483.64,500.94L485.02,502.84L486.43,500.97L485.02,497.69L481.76,493.92L482.23,490.21L480.85,487.87L480.85,484.59L476.65,478.48L476.65,475.7Z" fill="#dadada" stroke="#fff" stroke-width="0.5" id="DO-32" data-name="Santo Domingo"/>
</svg>